<mxfile host="app.diagrams.net" modified="2023-11-15T22:01:44.713Z" agent="Mozilla/5.0 (Windows NT 10.0; Win64; x64) AppleWebKit/537.36 (KHTML, like Gecko) Chrome/119.0.0.0 Safari/537.36" version="22.1.0" etag="GpjiT3TTGxyRpwx33Idt" type="github">
  <diagram name="Page-1" id="I1hb7Ta-Y50a8KGC_4lw">
    <mxGraphModel>
      <root>
        <mxCell id="0" />
        <mxCell id="1" parent="0" />
      </root>
    </mxGraphModel>
  </diagram>
</mxfile>
